<svg width="36" height="36" viewBox="0 0 36 36" fill="none" xmlns="http://www.w3.org/2000/svg">
<path d="M25.5637 26.6464C24.6653 25.4569 23.503 24.4923 22.1684 23.8285C20.8337 23.1647 19.3631 22.8199 17.8725 22.8213C16.382 22.8199 14.9114 23.1647 13.5767 23.8285C12.2421 24.4923 11.0798 25.4569 10.1814 26.6464M25.5637 26.6464C27.3168 25.087 28.5531 23.0316 29.1112 20.7527C29.6693 18.4737 29.5215 16.079 28.6873 13.8861C27.8531 11.6931 26.372 9.80552 24.4405 8.47365C22.5089 7.14178 20.2181 6.42856 17.8719 6.42856C15.5257 6.42856 13.2349 7.14178 11.3033 8.47365C9.37176 9.80552 7.89069 11.6931 7.05652 13.8861C6.22236 16.079 6.07452 18.4737 6.6326 20.7527C7.19069 23.0316 8.42833 25.087 10.1814 26.6464M25.5637 26.6464C23.4474 28.534 20.7084 29.5754 17.8725 29.5714C15.0363 29.5758 12.298 28.5343 10.1814 26.6464M21.7297 15.1069C21.7297 16.1299 21.3233 17.111 20.6 17.8343C19.8766 18.5577 18.8955 18.9641 17.8725 18.9641C16.8496 18.9641 15.8685 18.5577 15.1451 17.8343C14.4218 17.111 14.0154 16.1299 14.0154 15.1069C14.0154 14.0839 14.4218 13.1028 15.1451 12.3794C15.8685 11.6561 16.8496 11.2497 17.8725 11.2497C18.8955 11.2497 19.8766 11.6561 20.6 12.3794C21.3233 13.1028 21.7297 14.0839 21.7297 15.1069Z" stroke="#513C29" stroke-width="2" stroke-linecap="round" stroke-linejoin="round"/>
</svg>
