<svg width="37" height="36" viewBox="0 0 37 36" fill="none" xmlns="http://www.w3.org/2000/svg">
<path d="M6.16809 18.1799L17.3852 6.8453C17.9364 6.28964 18.8284 6.28964 19.3783 6.8453L30.5967 18.1799M8.98677 15.332V28.1475C8.98677 28.9335 9.61816 29.5714 10.3961 29.5714H13.5637C14.6683 29.5714 15.5637 28.676 15.5637 27.5714V23.401C15.5637 22.615 16.1951 21.9771 16.973 21.9771H19.7917C20.5697 21.9771 21.2011 22.615 21.2011 23.401V27.5714C21.2011 28.676 22.0965 29.5714 23.2011 29.5714H26.3686C27.1466 29.5714 27.778 28.9335 27.778 28.1475V15.332M13.6846 29.5714H24.0197" stroke="#513C29" stroke-width="2" stroke-linecap="round" stroke-linejoin="round"/>
</svg>
