<svg width="29" height="35" viewBox="0 0 29 35" fill="none" xmlns="http://www.w3.org/2000/svg">
<path d="M27.75 18.2057C27.75 21.9017 25.9286 25.8268 23.1248 28.8406C20.3193 31.8561 16.6301 33.8545 13 33.8545C9.13825 33.8545 6.0764 33.3172 3.99234 31.927C1.97426 30.5807 0.75 28.3472 0.75 24.6045C0.75 22.7562 1.15083 21.4978 1.74723 20.5483C2.35067 19.5876 3.19164 18.8818 4.18534 18.1912C4.49539 17.9758 4.82301 17.7616 5.16051 17.5409C6.9247 16.3872 8.95882 15.057 10.1645 12.4546C11.7354 9.8312 13.5959 8.48862 15.4555 7.9882C17.3331 7.48292 19.313 7.80852 21.1502 8.71355C22.9894 9.61962 24.6495 11.0911 25.8471 12.8044C27.0471 14.521 27.75 16.432 27.75 18.2057Z" fill="#F3ECE5" stroke="#C9AB92" stroke-width="1.5"/>
<circle cx="11" cy="18.7057" r="1" fill="#C9AB92"/>
<circle cx="17" cy="16.7057" r="1" fill="#C9AB92"/>
<path d="M13 21.7057H16" stroke="#C9AB92" stroke-width="1.5" stroke-linecap="round"/>
<path d="M16.6973 7C16.6973 6.00674 16.6973 5.01349 16.6973 4.02023C16.6973 3.79955 16.719 3.5727 16.665 3.35918C16.4828 2.63962 16.0713 2.05285 15.4877 1.70488C14.8743 1.33916 14.3812 1.32731 13.813 1.77199C13.5802 1.95411 13.3986 2.16449 13.2214 2.41626C13.1334 2.54114 13.0241 2.66096 13.0094 2.82564C12.9837 3.1161 12.9988 3.33855 13.2066 3.53871C13.5303 3.85047 13.9951 3.85981 14.3957 3.89608C14.8874 3.94059 15.3615 3.99297 15.8261 3.76521C16.0302 3.66519 16.2005 3.50873 16.3942 3.38938C16.4653 3.34554 16.4827 3.21716 16.4913 3.131C16.5358 2.68627 16.6282 2.27307 16.9151 1.94983C17.239 1.58503 17.6617 1.30354 18.0939 1.14449C18.3859 1.03705 18.8258 0.943825 19.1344 1.04047C19.4522 1.14002 19.8144 1.56414 19.9025 1.91292C20.0252 2.3984 20.0788 2.87419 19.776 3.27194C19.6826 3.39466 19.525 3.47931 19.3919 3.52528C18.9555 3.67605 18.4281 3.64647 17.9835 3.5773C17.5016 3.5023 16.6605 3.29194 16.406 2.71155" stroke="#C9AB92" stroke-width="1.5" stroke-linecap="round"/>
</svg>
