<svg width="345" height="46" viewBox="0 0 345 46" fill="none" xmlns="http://www.w3.org/2000/svg">
<rect width="345" height="46" rx="8" fill="black"/>
<path d="M37.6227 28.1447C37.2996 28.9133 36.917 29.6208 36.4738 30.2713C35.8697 31.158 35.3751 31.7719 34.9938 32.1127C34.4029 32.6722 33.7697 32.9587 33.0917 32.975C32.605 32.975 32.018 32.8324 31.3348 32.5432C30.6492 32.2553 30.0192 32.1127 29.4432 32.1127C28.8391 32.1127 28.1911 32.2553 27.4981 32.5432C26.804 32.8324 26.2449 32.9832 25.8174 32.9981C25.1672 33.0266 24.5191 32.7319 23.8723 32.1127C23.4594 31.742 22.943 31.1064 22.3243 30.2061C21.6606 29.2446 21.1149 28.1297 20.6874 26.8587C20.2295 25.4857 20 24.1563 20 22.8692C20 21.3948 20.3095 20.1232 20.9293 19.0576C21.4164 18.2017 22.0645 17.5265 22.8756 17.0308C23.6867 16.5351 24.5631 16.2826 25.5068 16.2664C26.0233 16.2664 26.7005 16.4309 27.542 16.7541C28.3812 17.0783 28.9201 17.2428 29.1563 17.2428C29.3329 17.2428 29.9315 17.0505 30.9463 16.6671C31.9059 16.3116 32.7158 16.1644 33.3793 16.2224C35.1772 16.3718 36.5279 17.1014 37.4262 18.416C35.8183 19.419 35.0229 20.8238 35.0387 22.626C35.0532 24.0297 35.5479 25.1979 36.52 26.1254C36.9606 26.5558 37.4526 26.8885 38 27.1248C37.8813 27.4793 37.756 27.8188 37.6227 28.1447ZM33.4993 11.4401C33.4993 12.5404 33.1089 13.5677 32.3306 14.5185C31.3915 15.6489 30.2555 16.3021 29.0236 16.199C29.0079 16.067 28.9988 15.9281 28.9988 15.7821C28.9988 14.7259 29.4454 13.5955 30.2386 12.6713C30.6346 12.2033 31.1382 11.8142 31.7489 11.5038C32.3583 11.1981 32.9348 11.029 33.4769 11C33.4927 11.1471 33.4993 11.2942 33.4993 11.4401V11.4401Z" fill="white"/>
<path d="M133.345 29.08H131.729L130.513 25.832H125.553L124.305 29.08H122.689L127.153 17.368H128.945L133.345 29.08ZM130.001 24.504L128.049 19.288L126.049 24.504H130.001ZM139.078 27.864C139.718 27.864 140.236 27.6347 140.63 27.176C141.025 26.7067 141.222 26.0933 141.222 25.336C141.222 24.5893 141.025 23.9867 140.63 23.528C140.236 23.0587 139.718 22.824 139.078 22.824C138.684 22.824 138.316 22.9413 137.974 23.176C137.644 23.4 137.377 23.704 137.174 24.088C136.982 24.472 136.886 24.888 136.886 25.336C136.886 25.7947 136.982 26.216 137.174 26.6C137.377 26.984 137.644 27.2933 137.974 27.528C138.316 27.752 138.684 27.864 139.078 27.864ZM135.35 21.544H136.87V22.744C137.126 22.36 137.473 22.0667 137.91 21.864C138.348 21.6507 138.758 21.544 139.142 21.544C139.836 21.544 140.454 21.704 140.998 22.024C141.553 22.344 141.98 22.792 142.278 23.368C142.588 23.944 142.742 24.6 142.742 25.336C142.742 26.0827 142.588 26.744 142.278 27.32C141.98 27.896 141.553 28.3493 140.998 28.68C140.454 29 139.836 29.16 139.142 29.16C138.769 29.16 138.364 29.0533 137.926 28.84C137.489 28.6267 137.137 28.3333 136.87 27.96V32.488H135.35V21.544ZM148.313 27.864C148.953 27.864 149.47 27.6347 149.865 27.176C150.259 26.7067 150.457 26.0933 150.457 25.336C150.457 24.5893 150.259 23.9867 149.865 23.528C149.47 23.0587 148.953 22.824 148.313 22.824C147.918 22.824 147.55 22.9413 147.209 23.176C146.878 23.4 146.611 23.704 146.409 24.088C146.217 24.472 146.121 24.888 146.121 25.336C146.121 25.7947 146.217 26.216 146.409 26.6C146.611 26.984 146.878 27.2933 147.209 27.528C147.55 27.752 147.918 27.864 148.313 27.864ZM144.585 21.544H146.105V22.744C146.361 22.36 146.707 22.0667 147.145 21.864C147.582 21.6507 147.993 21.544 148.377 21.544C149.07 21.544 149.689 21.704 150.233 22.024C150.787 22.344 151.214 22.792 151.513 23.368C151.822 23.944 151.977 24.6 151.977 25.336C151.977 26.0827 151.822 26.744 151.513 27.32C151.214 27.896 150.787 28.3493 150.233 28.68C149.689 29 149.07 29.16 148.377 29.16C148.003 29.16 147.598 29.0533 147.161 28.84C146.723 28.6267 146.371 28.3333 146.105 27.96V32.488H144.585V21.544ZM155.115 17.72V29.08H153.595V17.72H155.115ZM160.364 29.144C159.66 29.144 159.03 28.984 158.476 28.664C157.932 28.344 157.505 27.896 157.196 27.32C156.886 26.744 156.732 26.088 156.732 25.352C156.732 24.616 156.886 23.96 157.196 23.384C157.505 22.808 157.932 22.36 158.476 22.04C159.03 21.7093 159.66 21.544 160.364 21.544C161.057 21.544 161.633 21.688 162.092 21.976C162.55 22.264 162.881 22.5627 163.084 22.872C163.297 23.1813 163.43 23.4213 163.484 23.592C163.708 24.136 163.82 24.7387 163.82 25.4C163.82 25.56 163.814 25.6933 163.804 25.8C163.793 25.896 163.788 25.9493 163.788 25.96H158.252C158.348 26.504 158.593 26.952 158.988 27.304C159.393 27.656 159.852 27.832 160.364 27.832C160.95 27.832 161.398 27.72 161.708 27.496C162.028 27.2613 162.252 27.032 162.38 26.808L163.58 27.384C163.366 27.864 162.982 28.28 162.428 28.632C161.884 28.9733 161.196 29.144 160.364 29.144ZM162.348 24.728C162.273 24.1627 162.076 23.7093 161.756 23.368C161.436 23.0267 160.972 22.856 160.364 22.856C159.83 22.856 159.366 23.032 158.972 23.384C158.588 23.7253 158.348 24.1733 158.252 24.728H162.348ZM170.934 27.272V24.824H166.87V20.28H175.062V18.328H166.838V17.08H176.614V21.528H168.422V23.56H176.934V24.824H172.486V27.272H178.15V28.552H165.318V27.272H170.934ZM188.606 27.272V24.824H184.542V20.28H192.734V18.328H184.51V17.08H194.286V21.528H186.094V23.56H194.606V24.824H190.158V27.272H195.822V28.552H182.99V27.272H188.606ZM208.11 17.496V19.016C208.11 20.2853 208.078 21.416 208.014 22.408C207.961 23.4 207.822 24.5573 207.598 25.88L206.014 25.736C206.26 24.488 206.409 23.3733 206.462 22.392C206.526 21.4 206.558 20.2747 206.558 19.016V18.76H198.334V17.496H208.11ZM196.974 26.968H209.774V28.264H196.974V26.968ZM222.623 16.104V26.36H221.039V16.104H222.623ZM211.231 20.584C211.231 19.9013 211.396 19.2933 211.727 18.76C212.057 18.216 212.505 17.7947 213.071 17.496C213.636 17.1973 214.271 17.048 214.975 17.048C215.679 17.048 216.313 17.1973 216.879 17.496C217.455 17.7947 217.903 18.216 218.223 18.76C218.553 19.2933 218.719 19.9013 218.719 20.584C218.719 21.2453 218.553 21.848 218.223 22.392C217.903 22.9253 217.455 23.3467 216.879 23.656C216.313 23.9547 215.679 24.104 214.975 24.104C214.281 24.104 213.647 23.9547 213.071 23.656C212.505 23.3467 212.057 22.9253 211.727 22.392C211.396 21.848 211.231 21.2453 211.231 20.584ZM212.751 20.584C212.751 21.2133 212.964 21.7307 213.391 22.136C213.817 22.5307 214.345 22.728 214.975 22.728C215.615 22.728 216.143 22.5307 216.559 22.136C216.985 21.7307 217.199 21.2133 217.199 20.584C217.199 19.9333 216.985 19.4107 216.559 19.016C216.143 18.6107 215.615 18.408 214.975 18.408C214.335 18.408 213.801 18.6107 213.375 19.016C212.959 19.4107 212.751 19.9333 212.751 20.584ZM213.407 25.336H214.959V28.68H223.023V29.96H213.407V25.336Z" fill="white"/>
</svg>
