<svg width="34" height="33" viewBox="0 0 34 33" fill="none" xmlns="http://www.w3.org/2000/svg">
<path d="M15.4117 5.92475C15.4116 5.92496 15.4115 5.92518 15.4114 5.92539L15.4117 5.92475L15.4072 5.92277L15.4117 5.92475ZM14.5883 5.92475L14.5886 5.92537C14.5885 5.92516 14.5884 5.92496 14.5883 5.92475L14.5928 5.92277L14.5883 5.92475ZM2.92475 17.5883C2.92496 17.5884 2.92517 17.5885 2.92537 17.5886L2.92475 17.5883L2.92277 17.5928L2.92475 17.5883ZM2.92475 18.4117L2.92539 18.4114C2.92518 18.4115 2.92496 18.4116 2.92475 18.4117L2.92277 18.4072L2.92475 18.4117ZM15.9606 5.31916C15.5922 4.48438 14.4078 4.48438 14.0394 5.31916L10.4509 13.4509L2.31916 17.0394C1.48438 17.4078 1.48438 18.5922 2.31916 18.9606L10.4509 22.5491L14.0394 30.6808C14.4078 31.5156 15.5922 31.5156 15.9606 30.6808L19.5491 22.5491L27.6808 18.9606C28.5156 18.5922 28.5156 17.4078 27.6808 17.0394L19.5491 13.4509L15.9606 5.31916Z" stroke="#C9AB92" stroke-width="1.5"/>
<path d="M26.8599 1.9636L26.8599 1.96361L25.6642 4.66421L22.9636 5.85993C22.4081 6.10587 22.4081 6.89412 22.9636 7.14007L22.9636 7.14007L25.6642 8.33579L26.8599 11.0364C27.1059 11.5919 27.8941 11.5919 28.1401 11.0364L29.3358 8.33579L32.0364 7.14007C32.5919 6.89413 32.5919 6.10588 32.0364 5.85993L31.7935 6.40856L32.0364 5.85993L29.3358 4.66421L28.1401 1.96361C27.8941 1.40814 27.1059 1.40814 26.8599 1.9636Z" stroke="#C9AB92" stroke-width="1.2"/>
</svg>
