<svg width="36" height="36" viewBox="0 0 36 36" fill="none" xmlns="http://www.w3.org/2000/svg">
<path d="M6.04309 18.1799L17.2602 6.8453C17.8114 6.28964 18.7034 6.28964 19.2533 6.8453L30.4717 18.1799M8.86177 15.332V28.1475C8.86177 28.9335 9.49316 29.5714 10.2711 29.5714H13.4387C14.5433 29.5714 15.4387 28.676 15.4387 27.5714V23.401C15.4387 22.615 16.0701 21.9771 16.848 21.9771H19.6667C20.4447 21.9771 21.0761 22.615 21.0761 23.401V27.5714C21.0761 28.676 21.9715 29.5714 23.0761 29.5714H26.2436C27.0216 29.5714 27.653 28.9335 27.653 28.1475V15.332M13.5596 29.5714H23.8947" stroke="#C9AB92" stroke-width="2" stroke-linecap="round" stroke-linejoin="round"/>
</svg>
