<svg width="21" height="25" viewBox="0 0 21 25" fill="none" xmlns="http://www.w3.org/2000/svg">
<path d="M14.4192 18.9965C16.9748 18.7146 17.5858 19.0803 20 18.25C17.9555 16.1398 18.7256 12.4692 18.7301 9.62635V8.66787C18.7301 6.63422 17.8631 4.68387 16.3197 3.24587C14.7764 1.80786 12.6832 1 10.5006 1C8.31794 1 6.22472 1.80786 4.68138 3.24587C3.13804 4.68387 2.271 6.63422 2.271 8.66787V9.62635C2.27513 12.4694 3.04503 16.14 1 18.25C3.37697 19.0679 3.98274 18.7089 6.58191 18.9965M14.4192 18.9965C11.8159 19.2842 9.18522 19.2842 6.58191 18.9965M14.4192 18.9965C14.6169 19.5714 14.666 20.1817 14.5627 20.7776C14.4593 21.3736 14.2064 21.9384 13.8244 22.426C13.4425 22.9137 12.9424 23.3104 12.3648 23.5839C11.7872 23.8574 11.1485 24 10.5006 24C9.85265 24 9.2139 23.8574 8.6363 23.5839C8.0587 23.3104 7.55859 22.9137 7.17667 22.426C6.79475 21.9384 6.54181 21.3736 6.43846 20.7776C6.33511 20.1817 6.38426 19.5714 6.58191 18.9965" stroke="#513C29" stroke-width="2" stroke-linecap="round" stroke-linejoin="round"/>
</svg>
