<svg width="20" height="20" viewBox="0 0 20 20" fill="none" xmlns="http://www.w3.org/2000/svg">
<g id="icon">
<path id="Vector" d="M11.8978 7.80245L11.6581 14.3957M8.34175 14.3957L8.1021 7.80245M15.0063 5.45087C15.2432 5.48896 15.4787 5.52925 15.7142 5.57247M15.0063 5.45087L14.2666 15.6213C14.2364 16.0354 14.0595 16.4221 13.7714 16.7042C13.4832 16.9863 13.105 17.143 12.7123 17.1429H7.28755C6.89489 17.143 6.51666 16.9863 6.22849 16.7042C5.94032 16.4221 5.76345 16.0354 5.73326 15.6213L4.99352 5.45087M15.0063 5.45087C14.2069 5.32304 13.4034 5.22603 12.5973 5.16003M4.99352 5.45087C4.75664 5.48823 4.52114 5.52852 4.28564 5.57174M4.99352 5.45087C5.79292 5.32304 6.59646 5.22604 7.40253 5.16003M12.5973 5.16003V4.48899C12.5973 3.62454 11.967 2.90368 11.1497 2.87658C10.3834 2.85067 9.61647 2.85067 8.85015 2.87658C8.03283 2.90368 7.40253 3.62527 7.40253 4.48899V5.16003M12.5973 5.16003C10.8683 5.0187 9.13155 5.0187 7.40253 5.16003" stroke="#F22424" stroke-width="1.5" stroke-linecap="round" stroke-linejoin="round"/>
</g>
</svg>
