<svg width="36" height="36" viewBox="0 0 36 36" fill="none" xmlns="http://www.w3.org/2000/svg">
<path d="M22.7323 16.2198V10.8791C22.7323 9.69875 22.2745 8.56673 21.4595 7.73209C20.6445 6.89745 19.5392 6.42856 18.3866 6.42856C17.2341 6.42856 16.1287 6.89745 15.3138 7.73209C14.4988 8.56673 14.0409 9.69875 14.0409 10.8791V16.2198M27.2009 13.8544L28.6645 28.0962C28.7456 28.8854 28.143 29.5714 27.3677 29.5714H9.40551C9.22265 29.5716 9.0418 29.5324 8.8747 29.4564C8.70759 29.3803 8.55798 29.2691 8.43558 29.13C8.31317 28.9909 8.22071 28.8269 8.16421 28.6488C8.1077 28.4707 8.08841 28.2824 8.10759 28.0962L9.57239 13.8544C9.60617 13.5264 9.75737 13.2227 9.99682 13.002C10.2363 12.7813 10.547 12.6593 10.8691 12.6593H25.9041C26.5716 12.6593 27.1313 13.1756 27.2009 13.8544ZM14.4755 16.2198C14.4755 16.3378 14.4297 16.451 14.3482 16.5345C14.2667 16.6179 14.1562 16.6648 14.0409 16.6648C13.9257 16.6648 13.8151 16.6179 13.7336 16.5345C13.6521 16.451 13.6064 16.3378 13.6064 16.2198C13.6064 16.1017 13.6521 15.9885 13.7336 15.9051C13.8151 15.8216 13.9257 15.7747 14.0409 15.7747C14.1562 15.7747 14.2667 15.8216 14.3482 15.9051C14.4297 15.9885 14.4755 16.1017 14.4755 16.2198ZM23.1669 16.2198C23.1669 16.3378 23.1211 16.451 23.0396 16.5345C22.9581 16.6179 22.8476 16.6648 22.7323 16.6648C22.6171 16.6648 22.5065 16.6179 22.425 16.5345C22.3435 16.451 22.2978 16.3378 22.2978 16.2198C22.2978 16.1017 22.3435 15.9885 22.425 15.9051C22.5065 15.8216 22.6171 15.7747 22.7323 15.7747C22.8476 15.7747 22.9581 15.8216 23.0396 15.9051C23.1211 15.9885 23.1669 16.1017 23.1669 16.2198Z" stroke="#513C29" stroke-width="2" stroke-linecap="round" stroke-linejoin="round"/>
</svg>
