<svg width="28" height="28" viewBox="0 0 28 28" fill="none" xmlns="http://www.w3.org/2000/svg">
<path d="M24.25 11.9306C24.25 14.8369 22.8611 17.9324 20.7174 20.3114C18.5703 22.6942 15.7668 24.25 13.0351 24.25C10.0649 24.25 7.74873 23.822 6.18594 22.7457C4.68464 21.7117 3.75 19.985 3.75 17.0303C3.75 15.5765 4.05515 14.5994 4.49922 13.8695C4.94913 13.13 5.57791 12.5827 6.33761 12.0377C6.57179 11.8696 6.82115 11.7014 7.07949 11.5272C8.441 10.6088 10.0517 9.52242 11.0021 7.40984C12.1996 5.34804 13.6031 4.31579 14.9809 3.933C16.3746 3.54576 17.8543 3.79199 19.2423 4.49796C22.0676 5.93496 24.25 9.13277 24.25 11.9306Z" fill="#C9AB92" stroke="#C9AB92" stroke-width="1.5"/>
<path d="M18 12L13.2 18L10.8 15.75L10 15" stroke="white" stroke-width="1.5" stroke-linecap="round" stroke-linejoin="round"/>
</svg>
