<svg width="345" height="46" viewBox="0 0 345 46" fill="none" xmlns="http://www.w3.org/2000/svg">
<rect width="345" height="46" rx="8" fill="#FFEC00"/>
<path fill-rule="evenodd" clip-rule="evenodd" d="M30 29.4286C35.5228 29.4286 40 25.9748 40 21.7143C40 17.4538 35.5228 14 30 14C24.4772 14 20 17.4538 20 21.7143C20 24.7185 22.2261 27.3216 25.4753 28.5956C25.3931 29.4918 25.2468 30.6038 25 32.0001L28.7244 29.3664C29.1421 29.4074 29.5678 29.4286 30 29.4286Z" fill="#3C1E1E"/>
<path d="M116.599 17.512C116.599 19.0373 116.412 20.424 116.039 21.672C115.676 22.9093 115.025 24.0667 114.087 25.144C113.148 26.2213 111.857 27.176 110.215 28.008L109.367 26.808C110.593 26.2 111.596 25.5227 112.375 24.776C113.164 24.0293 113.772 23.2027 114.199 22.296L109.671 22.744L109.463 21.368L114.663 21.032C114.844 20.4027 114.972 19.6507 115.047 18.776H110.183V17.512H116.599ZM118.679 16.072H120.263V21.704H122.423V23H120.263V30.248H118.679V16.072ZM130.583 17.512C130.583 19.0373 130.396 20.424 130.023 21.672C129.66 22.9093 129.01 24.0667 128.071 25.144C127.132 26.2213 125.842 27.176 124.199 28.008L123.351 26.808C124.578 26.2 125.58 25.5227 126.359 24.776C127.148 24.0293 127.756 23.2027 128.183 22.296L123.655 22.744L123.447 21.368L128.647 21.032C128.828 20.4027 128.956 19.6507 129.031 18.776H124.167V17.512H130.583ZM132.663 16.072H134.247V21.704H136.407V23H134.247V30.248H132.663V16.072ZM143.671 16.92C144.674 16.92 145.565 17.08 146.343 17.4C147.133 17.7093 147.751 18.152 148.199 18.728C148.647 19.304 148.871 19.9653 148.871 20.712C148.871 21.3947 148.685 22.008 148.311 22.552C147.938 23.0853 147.415 23.5173 146.743 23.848C146.071 24.1787 145.303 24.3813 144.439 24.456V27.208H150.103V28.488H137.271V27.208H142.887V24.456C142.023 24.3707 141.255 24.168 140.583 23.848C139.922 23.5173 139.405 23.0853 139.031 22.552C138.658 22.008 138.471 21.3947 138.471 20.712C138.471 19.9653 138.695 19.304 139.143 18.728C139.591 18.152 140.205 17.7093 140.983 17.4C141.773 17.08 142.669 16.92 143.671 16.92ZM140.007 20.712C140.007 21.2133 140.162 21.656 140.471 22.04C140.781 22.424 141.213 22.7227 141.767 22.936C142.322 23.1387 142.957 23.24 143.671 23.24C144.375 23.24 145.005 23.1387 145.559 22.936C146.114 22.7227 146.546 22.424 146.855 22.04C147.175 21.656 147.335 21.2133 147.335 20.712C147.335 20.2 147.175 19.752 146.855 19.368C146.546 18.984 146.114 18.6907 145.559 18.488C145.005 18.2747 144.375 18.168 143.671 18.168C142.957 18.168 142.322 18.2747 141.767 18.488C141.213 18.6907 140.781 18.984 140.471 19.368C140.162 19.752 140.007 20.2 140.007 20.712ZM156.856 23.688V22.376H152.904V16.456H162.504V17.672H154.472V18.792H162.168V19.96H154.472V21.16H162.6V22.376H158.424V23.688H164.04V24.936H151.24V23.688H156.856ZM152.68 26.04H162.424V30.248H160.84V27.288H152.68V26.04ZM171.64 16.904C172.621 16.904 173.507 17.0693 174.296 17.4C175.085 17.7307 175.704 18.2 176.152 18.808C176.611 19.4053 176.84 20.0933 176.84 20.872C176.84 21.6613 176.611 22.36 176.152 22.968C175.704 23.5653 175.085 24.0293 174.296 24.36C173.507 24.6907 172.621 24.856 171.64 24.856C170.659 24.856 169.773 24.6907 168.984 24.36C168.195 24.0293 167.571 23.5653 167.112 22.968C166.664 22.36 166.44 21.6613 166.44 20.872C166.44 20.0933 166.664 19.4053 167.112 18.808C167.571 18.2 168.195 17.7307 168.984 17.4C169.773 17.0693 170.659 16.904 171.64 16.904ZM165.24 27.128H178.072V28.424H165.24V27.128ZM167.96 20.872C167.96 21.416 168.115 21.8907 168.424 22.296C168.744 22.7013 169.181 23.016 169.736 23.24C170.301 23.4533 170.936 23.56 171.64 23.56C172.344 23.56 172.973 23.4533 173.528 23.24C174.083 23.016 174.515 22.7013 174.824 22.296C175.144 21.8907 175.304 21.416 175.304 20.872C175.304 20.3387 175.144 19.8693 174.824 19.464C174.515 19.0587 174.083 18.744 173.528 18.52C172.973 18.296 172.344 18.184 171.64 18.184C170.936 18.184 170.301 18.296 169.736 18.52C169.181 18.744 168.744 19.0587 168.424 19.464C168.115 19.8693 167.96 20.3387 167.96 20.872ZM184.84 27.272V24.824H180.776V20.28H188.968V18.328H180.744V17.08H190.52V21.528H182.328V23.56H190.84V24.824H186.392V27.272H192.056V28.552H179.224V27.272H184.84ZM202.512 27.272V24.824H198.448V20.28H206.64V18.328H198.416V17.08H208.192V21.528H200V23.56H208.512V24.824H204.064V27.272H209.728V28.552H196.896V27.272H202.512ZM222.017 17.496V19.016C222.017 20.2853 221.985 21.416 221.921 22.408C221.867 23.4 221.729 24.5573 221.505 25.88L219.921 25.736C220.166 24.488 220.315 23.3733 220.369 22.392C220.433 21.4 220.465 20.2747 220.465 19.016V18.76H212.241V17.496H222.017ZM210.881 26.968H223.681V28.264H210.881V26.968ZM236.529 16.104V26.36H234.945V16.104H236.529ZM225.137 20.584C225.137 19.9013 225.302 19.2933 225.633 18.76C225.964 18.216 226.412 17.7947 226.977 17.496C227.542 17.1973 228.177 17.048 228.881 17.048C229.585 17.048 230.22 17.1973 230.785 17.496C231.361 17.7947 231.809 18.216 232.129 18.76C232.46 19.2933 232.625 19.9013 232.625 20.584C232.625 21.2453 232.46 21.848 232.129 22.392C231.809 22.9253 231.361 23.3467 230.785 23.656C230.22 23.9547 229.585 24.104 228.881 24.104C228.188 24.104 227.553 23.9547 226.977 23.656C226.412 23.3467 225.964 22.9253 225.633 22.392C225.302 21.848 225.137 21.2453 225.137 20.584ZM226.657 20.584C226.657 21.2133 226.87 21.7307 227.297 22.136C227.724 22.5307 228.252 22.728 228.881 22.728C229.521 22.728 230.049 22.5307 230.465 22.136C230.892 21.7307 231.105 21.2133 231.105 20.584C231.105 19.9333 230.892 19.4107 230.465 19.016C230.049 18.6107 229.521 18.408 228.881 18.408C228.241 18.408 227.708 18.6107 227.281 19.016C226.865 19.4107 226.657 19.9333 226.657 20.584ZM227.313 25.336H228.865V28.68H236.929V29.96H227.313V25.336Z" fill="black"/>
</svg>
