<svg width="37" height="36" viewBox="0 0 37 36" fill="none" xmlns="http://www.w3.org/2000/svg">
<path d="M26.4387 26.6464C25.5403 25.4569 24.378 24.4923 23.0434 23.8285C21.7087 23.1647 20.2381 22.8199 18.7475 22.8213C17.257 22.8199 15.7864 23.1647 14.4517 23.8285C13.1171 24.4923 11.9548 25.4569 11.0564 26.6464M26.4387 26.6464C28.1918 25.087 29.4281 23.0316 29.9862 20.7527C30.5443 18.4737 30.3965 16.079 29.5623 13.8861C28.7281 11.6931 27.247 9.80552 25.3155 8.47365C23.3839 7.14178 21.0931 6.42856 18.7469 6.42856C16.4007 6.42856 14.1099 7.14178 12.1783 8.47365C10.2468 9.80552 8.76569 11.6931 7.93152 13.8861C7.09736 16.079 6.94952 18.4737 7.5076 20.7527C8.06569 23.0316 9.30333 25.087 11.0564 26.6464M26.4387 26.6464C24.3224 28.534 21.5834 29.5754 18.7475 29.5714C15.9113 29.5758 13.173 28.5343 11.0564 26.6464M22.6047 15.1069C22.6047 16.1299 22.1983 17.111 21.475 17.8343C20.7516 18.5577 19.7705 18.9641 18.7475 18.9641C17.7246 18.9641 16.7435 18.5577 16.0201 17.8343C15.2968 17.111 14.8904 16.1299 14.8904 15.1069C14.8904 14.0839 15.2968 13.1028 16.0201 12.3794C16.7435 11.6561 17.7246 11.2497 18.7475 11.2497C19.7705 11.2497 20.7516 11.6561 21.475 12.3794C22.1983 13.1028 22.6047 14.0839 22.6047 15.1069Z" stroke="#C9AB92" stroke-width="2" stroke-linecap="round" stroke-linejoin="round"/>
</svg>
