<svg width="148" height="142" viewBox="0 0 148 142" fill="none" xmlns="http://www.w3.org/2000/svg">
<path fill-rule="evenodd" clip-rule="evenodd" d="M27.2523 89.4902C26.4098 89.5771 25.5547 89.6216 24.6892 89.6216C11.0537 89.6216 0 78.5679 0 64.9324C0 56.3991 4.32921 48.8769 10.9111 44.4423C9.93705 41.7895 9.40532 38.923 9.40532 35.9324C9.40532 22.297 20.459 11.2432 34.0945 11.2432C39.5947 11.2432 44.6749 13.0418 48.7789 16.0829C55.0669 6.40252 65.975 0 78.3784 0C90.6839 0 101.518 6.30178 107.828 15.8542C110.771 14.8962 113.913 14.3784 117.176 14.3784C133.841 14.3784 147.351 27.8885 147.351 44.5541C147.351 52.1576 144.539 59.1043 139.898 64.4108C141.171 67.7569 141.865 71.363 141.865 75.1216C141.865 92.6529 126.776 106.865 108.162 106.865C99.1976 106.865 91.0505 103.568 85.0128 98.192C78.8344 105.394 69.3802 110 58.7838 110C44.3696 110 32.0688 101.477 27.2523 89.4902Z" fill="white"/>
<circle cx="84" cy="121" r="6" fill="white"/>
<circle cx="71" cy="137" r="5" fill="white"/>
</svg>
