<svg width="37" height="36" viewBox="0 0 37 36" fill="none" xmlns="http://www.w3.org/2000/svg">
<path d="M23.6073 16.2198V10.8791C23.6073 9.69875 23.1495 8.56673 22.3345 7.73209C21.5195 6.89745 20.4142 6.42856 19.2616 6.42856C18.1091 6.42856 17.0037 6.89745 16.1888 7.73209C15.3738 8.56673 14.9159 9.69875 14.9159 10.8791V16.2198M28.0759 13.8544L29.5395 28.0962C29.6206 28.8854 29.018 29.5714 28.2427 29.5714H10.2805C10.0977 29.5716 9.9168 29.5324 9.7497 29.4564C9.58259 29.3803 9.43298 29.2691 9.31058 29.13C9.18817 28.9909 9.09571 28.8269 9.03921 28.6488C8.9827 28.4707 8.96341 28.2824 8.98259 28.0962L10.4474 13.8544C10.4812 13.5264 10.6324 13.2227 10.8718 13.002C11.1113 12.7813 11.422 12.6593 11.7441 12.6593H26.7791C27.4466 12.6593 28.0063 13.1756 28.0759 13.8544ZM15.3505 16.2198C15.3505 16.3378 15.3047 16.451 15.2232 16.5345C15.1417 16.6179 15.0312 16.6648 14.9159 16.6648C14.8007 16.6648 14.6901 16.6179 14.6086 16.5345C14.5271 16.451 14.4814 16.3378 14.4814 16.2198C14.4814 16.1017 14.5271 15.9885 14.6086 15.9051C14.6901 15.8216 14.8007 15.7747 14.9159 15.7747C15.0312 15.7747 15.1417 15.8216 15.2232 15.9051C15.3047 15.9885 15.3505 16.1017 15.3505 16.2198ZM24.0419 16.2198C24.0419 16.3378 23.9961 16.451 23.9146 16.5345C23.8331 16.6179 23.7226 16.6648 23.6073 16.6648C23.4921 16.6648 23.3815 16.6179 23.3 16.5345C23.2185 16.451 23.1728 16.3378 23.1728 16.2198C23.1728 16.1017 23.2185 15.9885 23.3 15.9051C23.3815 15.8216 23.4921 15.7747 23.6073 15.7747C23.7226 15.7747 23.8331 15.8216 23.9146 15.9051C23.9961 15.9885 24.0419 16.1017 24.0419 16.2198Z" stroke="#C9AB92" stroke-width="2" stroke-linecap="round" stroke-linejoin="round"/>
</svg>
