<svg width="37" height="36" viewBox="0 0 37 36" fill="none" xmlns="http://www.w3.org/2000/svg">
<path d="M26.2637 26.6464C25.3653 25.4569 24.203 24.4923 22.8684 23.8285C21.5337 23.1648 20.0632 22.82 18.5726 22.8213C17.082 22.82 15.6114 23.1648 14.2768 23.8285C12.9421 24.4923 11.7798 25.4569 10.8814 26.6464M26.2637 26.6464C28.0168 25.087 29.2531 23.0316 29.8112 20.7527C30.3693 18.4738 30.2215 16.079 29.3873 13.8861C28.5531 11.6931 27.0721 9.80555 25.1405 8.47368C23.2089 7.14182 20.9181 6.42859 18.5719 6.42859C16.2257 6.42859 13.9349 7.14182 12.0033 8.47368C10.0718 9.80555 8.5907 11.6931 7.75653 13.8861C6.92237 16.079 6.77453 18.4738 7.33261 20.7527C7.8907 23.0316 9.12835 25.087 10.8814 26.6464M26.2637 26.6464C24.1474 28.5341 21.4084 29.5755 18.5726 29.5714C15.7363 29.5758 12.998 28.5344 10.8814 26.6464M22.4297 15.1069C22.4297 16.1299 22.0233 17.111 21.3 17.8344C20.5766 18.5577 19.5955 18.9641 18.5726 18.9641C17.5496 18.9641 16.5685 18.5577 15.8451 17.8344C15.1218 17.111 14.7154 16.1299 14.7154 15.1069C14.7154 14.0839 15.1218 13.1028 15.8451 12.3795C16.5685 11.6561 17.5496 11.2497 18.5726 11.2497C19.5955 11.2497 20.5766 11.6561 21.3 12.3795C22.0233 13.1028 22.4297 14.0839 22.4297 15.1069Z" stroke="white" stroke-width="2" stroke-linecap="round" stroke-linejoin="round"/>
</svg>
