<svg width="37" height="36" viewBox="0 0 37 36" fill="none" xmlns="http://www.w3.org/2000/svg">
<path d="M23.2323 16.2198V10.8791C23.2323 9.69878 22.7744 8.56676 21.9594 7.73212C21.1445 6.89748 20.0391 6.42859 18.8866 6.42859C17.734 6.42859 16.6287 6.89748 15.8137 7.73212C14.9987 8.56676 14.5409 9.69878 14.5409 10.8791V16.2198M27.7008 13.8545L29.1644 28.0962C29.2456 28.8855 28.643 29.5714 27.8677 29.5714H9.90545C9.72259 29.5716 9.54174 29.5324 9.37463 29.4564C9.20753 29.3804 9.05792 29.2692 8.93552 29.13C8.81311 28.9909 8.72065 28.827 8.66415 28.6489C8.60764 28.4708 8.58835 28.2825 8.60753 28.0962L10.0723 13.8545C10.1061 13.5264 10.2573 13.2227 10.4968 13.0021C10.7362 12.7814 11.047 12.6593 11.3691 12.6594H26.404C27.0715 12.6594 27.6313 13.1756 27.7008 13.8545ZM14.9754 16.2198C14.9754 16.3378 14.9296 16.451 14.8482 16.5345C14.7667 16.618 14.6561 16.6649 14.5409 16.6649C14.4256 16.6649 14.3151 16.618 14.2336 16.5345C14.1521 16.451 14.1063 16.3378 14.1063 16.2198C14.1063 16.1018 14.1521 15.9886 14.2336 15.9051C14.3151 15.8216 14.4256 15.7747 14.5409 15.7747C14.6561 15.7747 14.7667 15.8216 14.8482 15.9051C14.9296 15.9886 14.9754 16.1018 14.9754 16.2198ZM23.6668 16.2198C23.6668 16.3378 23.6211 16.451 23.5396 16.5345C23.4581 16.618 23.3475 16.6649 23.2323 16.6649C23.117 16.6649 23.0065 16.618 22.925 16.5345C22.8435 16.451 22.7977 16.3378 22.7977 16.2198C22.7977 16.1018 22.8435 15.9886 22.925 15.9051C23.0065 15.8216 23.117 15.7747 23.2323 15.7747C23.3475 15.7747 23.4581 15.8216 23.5396 15.9051C23.6211 15.9886 23.6668 16.1018 23.6668 16.2198Z" stroke="white" stroke-width="2" stroke-linecap="round" stroke-linejoin="round"/>
</svg>
