<svg width="36" height="36" viewBox="0 0 36 36" fill="none" xmlns="http://www.w3.org/2000/svg">
<path d="M6.04321 18.1799L17.2603 6.84533C17.8115 6.28968 18.7035 6.28968 19.2534 6.84533L30.4718 18.1799M8.86189 15.332V28.1475C8.86189 28.9335 9.49328 29.5714 10.2712 29.5714H13.4388C14.5434 29.5714 15.4388 28.676 15.4388 27.5714V23.401C15.4388 22.615 16.0702 21.9771 16.8482 21.9771H19.6668C20.4448 21.9771 21.0762 22.615 21.0762 23.401V27.5714C21.0762 28.676 21.9716 29.5714 23.0762 29.5714H26.2438C27.0217 29.5714 27.6531 28.9335 27.6531 28.1475V15.332M13.5597 29.5714H23.8949" stroke="white" stroke-width="2" stroke-linecap="round" stroke-linejoin="round"/>
</svg>
