<svg width="22" height="26" viewBox="0 0 22 26" fill="none" xmlns="http://www.w3.org/2000/svg">
<path d="M15.0193 19.4965C17.5749 19.2146 18.1859 19.5803 20.6001 18.75C18.5556 16.6398 19.3257 12.9692 19.3302 10.1264V9.16787C19.3302 7.13422 18.4632 5.18387 16.9198 3.74587C15.3765 2.30786 13.2833 1.5 11.1007 1.5C8.91804 1.5 6.82482 2.30786 5.28148 3.74587C3.73813 5.18387 2.87109 7.13422 2.87109 9.16787V10.1264C2.87523 12.9694 3.64513 16.64 1.6001 18.75C3.97707 19.5679 4.58284 19.2089 7.18201 19.4965M15.0193 19.4965C12.416 19.7842 9.78532 19.7842 7.18201 19.4965M15.0193 19.4965C15.2169 20.0714 15.2661 20.6817 15.1627 21.2776C15.0594 21.8736 14.8065 22.4384 14.4245 22.926C14.0426 23.4137 13.5425 23.8104 12.9649 24.0839C12.3873 24.3574 11.7486 24.5 11.1007 24.5C10.4527 24.5 9.81399 24.3574 9.2364 24.0839C8.6588 23.8104 8.15869 23.4137 7.77676 22.926C7.39484 22.4384 7.14191 21.8736 7.03856 21.2776C6.93521 20.6817 6.98436 20.0714 7.18201 19.4965" stroke="white" stroke-width="2" stroke-linecap="round" stroke-linejoin="round"/>
</svg>
