<svg width="37" height="36" viewBox="0 0 37 36" fill="none" xmlns="http://www.w3.org/2000/svg">
<g id="Frame">
<path id="Vector" d="M22.0193 24.9965C24.5749 24.7146 25.1859 25.0803 27.6001 24.25C25.5556 22.1398 26.3257 18.4692 26.3302 15.6264V14.6679C26.3302 12.6342 25.4632 10.6839 23.9198 9.24587C22.3765 7.80786 20.2833 7 18.1007 7C15.918 7 13.8248 7.80786 12.2815 9.24587C10.7381 10.6839 9.87109 12.6342 9.87109 14.6679V15.6264C9.87523 18.4694 10.6451 22.14 8.6001 24.25C10.9771 25.0679 11.5828 24.7089 14.182 24.9965M22.0193 24.9965C19.416 25.2842 16.7853 25.2842 14.182 24.9965M22.0193 24.9965C22.2169 25.5714 22.2661 26.1817 22.1627 26.7776C22.0594 27.3736 21.8065 27.9384 21.4245 28.426C21.0426 28.9137 20.5425 29.3104 19.9649 29.5839C19.3873 29.8574 18.7486 30 18.1007 30C17.4527 30 16.814 29.8574 16.2364 29.5839C15.6588 29.3104 15.1587 28.9137 14.7768 28.426C14.3948 27.9384 14.1419 27.3736 14.0386 26.7776C13.9352 26.1817 13.9844 25.5714 14.182 24.9965" stroke="#C9AB92" stroke-width="2" stroke-linecap="round" stroke-linejoin="round"/>
</g>
</svg>
